HIERARCHY
ROOT Hips
{
  OFFSET 7.333 -26.027 -164.856
  CHANNELS 6 Xposition Yposition Zposition Zrotation Xrotation Yrotation
  JOINT LeftUpLeg
  {
    OFFSET 10.092 0.000 0.000
    CHANNELS 3 Zrotation Xrotation Yrotation
    JOINT LeftLeg
    {
      OFFSET 0.000 -38.160 -0.000
    CHANNELS 3 Zrotation Xrotation Yrotation
      JOINT LeftFoot
      {
        OFFSET -0.000 -24.040 0.000
    CHANNELS 3 Zrotation Xrotation Yrotation
        End Site
        {
          OFFSET -0.000 0.000 12.945
        }
      }
    }
  }
  JOINT RightUpLeg
  {
    OFFSET -10.092 -0.000 0.000
    CHANNELS 3 Zrotation Xrotation Yrotation
    JOINT RightLeg
    {
      OFFSET 0.000 -33.046 0.000
    CHANNELS 3 Zrotation Xrotation Yrotation
      JOINT RightFoot
      {
        OFFSET 0.000 -22.031 -0.000
    CHANNELS 3 Zrotation Xrotation Yrotation
        End Site
        {
          OFFSET 0.000 -0.000 11.863
        }
      }
    }
  }
  JOINT Spine
  {
    OFFSET -0.000 16.511 0.000
    CHANNELS 3 Zrotation Xrotation Yrotation
    JOINT LeftShoulder
    {
      OFFSET 0 16.511 0
    CHANNELS 3 Zrotation Xrotation Yrotation
      JOINT LeftArm
      {
        OFFSET 16.337 0.000 0.000
    CHANNELS 3 Zrotation Xrotation Yrotation
        JOINT LeftForeArm
        {
          OFFSET 0.000 -24.030 0.000
    CHANNELS 3 Zrotation Xrotation Yrotation
          JOINT LeftHand
          {
            OFFSET 0.000 -17.629 -0.000
    CHANNELS 3 Zrotation Xrotation Yrotation
            End Site
            {
              OFFSET 0.000 -11.753 -0.000
            }
          }
        }
      }
    }
    JOINT RightShoulder
    {
      OFFSET 0 16.511 0
    CHANNELS 3 Zrotation Xrotation Yrotation
      JOINT RightArm
      {
        OFFSET -16.337 0.000 0.000
    CHANNELS 3 Zrotation Xrotation Yrotation
        JOINT RightForeArm
        {
          OFFSET -0.000 -19.534 0.000
    CHANNELS 3 Zrotation Xrotation Yrotation
          JOINT RightHand
          {
            OFFSET 0.000 -19.514 -0.000
    CHANNELS 3 Zrotation Xrotation Yrotation
            End Site
            {
              OFFSET 0.000 -13.010 -0.000
            }
          }
        }
      }
    }
    JOINT Neck
    {
      OFFSET -0.000 16.511 0.000
    CHANNELS 3 Zrotation Xrotation Yrotation
      JOINT Head
      {
        OFFSET -0.000 12.493 -0.000
    CHANNELS 3 Zrotation Xrotation Yrotation
        End Site
        {
          OFFSET -0.000 8.328 -0.000
        }
      }
    }
  }
}
MOTION
Frames: 8
Frame Time: 0.0333333
0 0 0 -4.985196e-01 1.643080e-01 -1.291051e+01 -2.993950e+00 1.227860e+01 6.401926e-01 6.624610e+00 -1.604330e+01 1.023908e+00 0 0 NaN 1.230670e+00 1.119430e+01 -2.389630e-01 8.153260e+00 -8.512910e+00 1.397850e+00 -3.551856e-08 0 -1.325630e-08 -1.884337e-07 2.228115e-08 5.094410e-05 0 0 0 7.263816e+01 -3.328022e+01 -4.671180e+00 1.257697e+02 -2.360600e+01 1.421332e+02 NaN NaN -8.593167e-08 0 0 0 -7.156721e+01 -4.668380e+01 1.867530e+01 -1.189691e+02 -1.808441e+01 1.574425e+02 -3.277081e-08 NaN NaN 7.909528e-02 -3.240200e+00 -2.084459e-03 0 0 3.043160e-07 
0 0 0 -5.437946e-01 -6.386070e-01 -1.290149e+01 -3.738410e+00 1.327060e+01 8.590468e-01 7.629356e+00 -1.489180e+01 1.027839e+00 0 0 4.488846e-08 1.555941e+00 1.292720e+01 -3.468679e-01 6.969180e+00 -1.001260e+01 1.485910e+00 -3.330401e-08 0 -2.624938e-08 NaN 1.977098e-08 -3.200000e-05 0 0 0 7.320303e+01 -3.300230e+01 -4.235770e+00 1.201406e+02 -2.183620e+01 1.377687e+02 NaN -2.142527e-08 -9.568967e-09 0 0 0 -6.990000e+01 -4.438815e+01 1.954263e+01 -1.162738e+02 -1.431650e+01 1.172347e+02 -1.413747e-07 -1.476652e-07 NaN 2.834570e-01 -2.100320e+00 1.866000e-03 0 0 NaN 
0 0 0 -8.584818e-01 -1.070350e+00 -1.297403e+01 -3.470371e+00 1.351980e+01 8.123774e-01 7.969970e+00 -1.412044e+01 1.123600e+00 0 0 7.503167e-08 2.781921e+00 1.449700e+01 -6.961727e-01 5.148890e+00 -1.188480e+01 1.624817e+00 -5.533360e-08 0 3.014312e-09 -4.782609e-07 NaN -7.097452e-05 0 0 0 7.466446e+01 -2.911275e+01 -2.277849e+00 1.141481e+02 -1.992640e+01 1.321059e+02 -4.025098e-09 -1.018614e-08 -5.970422e-08 0 0 0 -6.990415e+01 -3.607307e+01 1.789249e+01 -1.133367e+02 -9.166490e+00 7.863902e+01 NaN NaN 1.931446e-07 1.977324e-01 -1.810850e+00 -1.501086e-04 0 0 NaN 
0 0 0 -1.194450e+00 -1.808636e+00 -1.292604e+01 -2.776972e+00 1.483880e+01 7.114328e-01 7.615758e+00 -1.552315e+01 1.323177e+00 0 0 NaN 2.751229e+00 1.499120e+01 -7.120500e-01 6.532850e+00 -1.054110e+01 1.695590e+00 -2.666955e-08 0 3.790461e-09 NaN 1.295475e-08 5.000000e-05 0 0 0 7.120821e+01 -2.124414e+01 -1.199127e+00 1.090823e+02 -1.891299e+01 1.259864e+02 2.070466e-08 -3.049772e-08 9.263439e-08 0 0 0 -6.864631e+01 -3.084370e+01 1.740759e+01 -1.073870e+02 -1.796970e+00 5.301969e+01 NaN NaN NaN 2.428645e-01 -1.887160e+00 -1.471872e-03 0 0 -4.072551e-08 
0 0 0 -1.323300e+00 -2.245568e+00 -1.267396e+01 -2.578420e+00 1.492160e+01 6.649005e-01 7.858174e+00 -1.331833e+01 1.237470e+00 0 0 NaN 2.857157e+00 1.570350e+01 -7.749890e-01 6.640549e+00 -1.083242e+01 1.781852e+00 NaN 0 -1.891448e-08 NaN 3.203390e-08 1.000000e-06 0 0 0 6.604488e+01 -1.394901e+01 1.765133e-01 1.001739e+02 -1.842590e+01 1.102439e+02 1.193084e-08 -1.556509e-07 3.225806e-08 0 0 0 -6.363208e+01 -2.474505e+01 1.826840e+01 -9.750455e+01 5.068382e+00 4.403486e+01 -2.376307e-08 -1.823447e-08 NaN 1.198030e-01 -1.910590e+00 1.401000e-03 0 0 2.363113e-07 
0 0 0 -9.175560e-01 -1.124940e+00 NaN -3.149118e+00 1.341970e+01 7.314717e-01 8.334590e+00 -1.337650e+01 1.222320e+00 0 0 1.015351e-07 2.820390e+00 1.421080e+01 -6.929160e-01 5.725150e+00 -1.126170e+01 1.663650e+00 -3.963415e-08 0 -9.476772e-09 1.355260e-08 NaN 4.900000e-05 0 0 0 5.953420e+01 -6.125840e+00 3.304060e+00 9.122064e+01 -1.568400e+01 9.106200e+01 -1.960533e-08 NaN NaN 0 0 0 -6.014960e+01 -2.052250e+01 1.827470e+01 -8.626399e+01 1.127010e+01 3.573114e+01 -9.254789e-08 -1.425720e-09 1.254676e-08 1.455160e-01 -1.196440e+00 -1.740000e-04 0 0 NaN 
0 0 0 -5.976700e-01 -8.302500e-01 -1.287361e+01 -3.614300e+00 1.322820e+01 8.257513e-01 7.594031e+00 -1.284805e+01 9.094656e-01 0 0 NaN 1.190862e+00 1.384610e+01 -2.835630e-01 8.497948e+00 -1.070730e+01 1.808790e+00 -2.418143e-08 0 1.622764e-08 1.360919e-07 -4.141536e-09 -6.174636e-05 0 0 0 5.148470e+01 2.501972e+00 9.606781e+00 8.181294e+01 -1.799883e+01 7.038000e+01 -3.254045e-08 NaN -1.369072e-07 0 0 0 -5.385068e+01 -1.832552e+01 2.026524e+01 -7.530265e+01 1.631889e+01 3.486773e+01 NaN -2.524438e-07 -7.468287e-08 1.424293e-01 -1.027960e+00 1.057560e-03 0 0 NaN 
0 0 0 -4.744756e-01 -2.547300e-01 -1.293850e+01 -4.321030e+00 1.285238e+01 9.623892e-01 9.190430e+00 -1.301400e+01 1.123650e+00 0 0 NaN 8.351710e-01 1.215911e+01 -1.758800e-01 9.053910e+00 -8.197960e+00 1.421260e+00 -5.601137e-08 0 1.840973e-08 4.645168e-07 2.385226e-08 2.797654e-05 0 0 0 4.576100e+01 9.232865e+00 1.692325e+01 6.903501e+01 -2.116449e+01 5.093620e+01 -1.306741e-08 1.313753e-08 NaN 0 0 0 -4.734841e+01 -1.746103e+01 2.351060e+01 -6.372289e+01 2.039469e+01 3.835825e+01 NaN NaN -4.198636e-07 -3.760549e-02 -9.256521e-01 2.451359e-03 0 0 -4.840517e-08 
